<svg width="119" height="53" viewBox="0 0 119 53" fill="none" xmlns="http://www.w3.org/2000/svg">
<path d="M45.811 23.0508C45.1689 26.9543 44.5268 30.8662 43.6365 34.736C43.4873 35.177 43.207 35.5638 42.8317 35.8465C39.4529 39.0321 36.0712 42.2205 32.6867 45.4117C32.2477 45.8393 31.6914 46.1316 31.0858 46.253C26.2915 47.3046 21.5059 48.3982 16.7116 49.4582C15.1364 49.7948 13.8693 50.3668 13.6981 52.0998C13.6296 52.756 13.1673 53.0084 12.4824 53.0084H1.16455C0.462533 53.0084 0.000276638 52.756 0.0345212 52.083C0.197183 47.7841 -0.521983 43.4348 0.967657 39.2116C2.67989 34.2397 6.96044 31.4382 12.3968 32.2879C16.3574 32.9376 20.4246 32.4589 24.117 30.9083C25.0872 30.4739 26.1338 30.2282 27.199 30.1847C28.109 30.1168 29.0116 30.3881 29.7271 30.9447C30.4426 31.5012 30.9185 32.3022 31.0601 33.1881C31.4026 34.8706 30.4523 36.2503 28.4918 36.9149C25.9234 37.7562 23.1667 38.2525 20.7182 39.4976C20.5727 39.5817 20.4015 39.6238 20.2645 39.7079L20.196 39.7584L20.1361 39.8089V39.8509C20.1105 39.8829 20.0929 39.9204 20.0847 39.9603V40.0276C20.0847 40.0276 20.0847 40.0697 20.0847 40.0949C20.2361 40.1593 20.3992 40.1925 20.5641 40.1925C20.7291 40.1925 20.8922 40.1593 21.0436 40.0949C22.4576 39.6305 23.9059 39.2733 25.3755 39.0265C30.7005 38.5133 34.1764 35.2324 37.7378 32.0187C38.0522 31.6841 38.2501 31.2598 38.3028 30.8073C38.8679 28.6032 39.159 26.3317 40.4175 24.3211C40.8804 23.6123 41.5121 23.0251 42.258 22.6103C43.0038 22.1955 43.8414 21.9655 44.698 21.9403C45.597 21.8814 45.9394 22.2179 45.811 23.0508Z" fill="#007C4B"/>
<path d="M34.4673 11.0543C32.3442 12.6527 31.7534 14.8737 30.8117 16.9432C29.7673 19.223 28.2434 20.0475 25.2127 19.9213C24.9474 19.2315 25.9918 18.7856 25.5381 17.877C24.6691 18.963 23.9654 20.1674 23.4492 21.4524C23.2865 21.7973 23.3892 22.3441 22.7899 22.3862C22.1906 22.4283 22.0623 21.9656 21.8568 21.6291C20.5404 19.5174 18.8157 17.6796 16.78 16.2197C14.7082 14.6381 14.0833 12.2742 14.2117 9.80082C14.4685 6.18336 16.2578 3.18002 18.672 0.0168457C18.5436 2.94446 19.785 5.06447 21.2404 7.1424C21.7112 7.83224 22.1478 8.54731 22.5845 9.25397C24.7076 12.6191 24.4251 14.7727 21.4202 17.7256C19.3912 14.7559 18.5351 11.4329 17.9957 7.71446C17.1396 10.8776 19.3826 17.3975 22.6358 21.5365C23.4165 20.479 23.8577 19.2164 23.9029 17.9106C23.7916 15.0419 25.5466 12.863 28.603 11.8956C30.4906 11.2717 32.477 10.9868 34.4673 11.0543Z" fill="#007C4B"/>
<path d="M34.3561 32.8937C33.1318 33.39 32.6438 32.6497 32.1558 31.7579C30.7261 29.0322 28.0208 28.2414 24.1854 29.3687C22.0194 29.9997 19.9648 30.9167 17.696 31.2532C16.354 31.4224 14.9915 31.3396 13.6809 31.0092C12.0286 30.6475 11.7118 29.4865 12.8247 28.2667C15.3332 25.5073 19.2114 23.9089 24.5107 24.0099C28.3205 24.2118 32.2158 26.3654 34.7841 30.4624C35.5375 31.6486 35.3235 32.4814 34.3561 32.8937Z" fill="#007C4B"/>
<path d="M53.0791 24.3296H57.0172C58.3621 24.2364 59.7088 24.4826 60.9297 25.0447C61.326 25.2829 61.6492 25.6223 61.8648 26.0267C62.0804 26.4311 62.1803 26.8855 62.1539 27.3413C62.1816 27.9705 61.9915 28.5903 61.6145 29.0996C61.4479 29.3251 61.2371 29.5157 60.9946 29.6601C60.752 29.8046 60.4826 29.9 60.202 29.9409V30.025C60.8692 30.1272 61.4769 30.4616 61.9142 30.9672C62.3585 31.6599 62.5307 32.4879 62.3983 33.2963C62.2659 34.1047 61.8381 34.8379 61.1951 35.3586C60.1842 36.0195 58.9829 36.3412 57.7706 36.2756H53.0791V24.3296ZM55.7587 29.0491H57.3597C57.9051 29.0929 58.4518 28.9819 58.935 28.7294C59.1036 28.6117 59.238 28.4528 59.3251 28.2684C59.4122 28.0839 59.4489 27.8804 59.4315 27.6778C59.4459 27.4804 59.4028 27.283 59.3073 27.1087C59.2118 26.9344 59.0678 26.7904 58.8921 26.6935C58.3543 26.4599 57.7665 26.3588 57.1799 26.3991H55.7673L55.7587 29.0491ZM55.7587 31.0597V34.164H57.471C58.0449 34.2053 58.6173 34.0669 59.1061 33.7686C59.2879 33.6203 59.4309 33.4315 59.5232 33.2178C59.6156 33.0041 59.6545 32.7719 59.6369 32.5404C59.6369 31.5561 58.8836 31.0597 57.3854 31.0597H55.7587Z" fill="#007C4B"/>
<path d="M64.6794 24.7754C64.6794 23.9342 65.1589 23.5556 66.1177 23.5556C67.0766 23.5556 67.556 23.9678 67.556 24.7754C67.5666 24.9422 67.5399 25.1091 67.4778 25.2647C67.4156 25.4202 67.3196 25.5604 67.1964 25.6756C66.8912 25.9129 66.5055 26.0272 66.1177 25.9953C65.1589 25.9953 64.6794 25.5662 64.6794 24.7754ZM67.4362 36.2588H64.7907V27.131H67.4362V36.2588Z" fill="#007C4B"/>
<path d="M79.0194 31.6738C79.0564 32.3081 78.9649 32.9432 78.7504 33.5425C78.5358 34.1418 78.2025 34.6933 77.7695 35.1651C77.3082 35.5965 76.7616 35.9303 76.1638 36.1459C75.5659 36.3615 74.9295 36.4543 74.2937 36.4186C73.4361 36.4332 72.5885 36.2365 71.8281 35.8465C71.1223 35.4612 70.5521 34.8745 70.1929 34.164C69.7929 33.3821 69.5959 32.5151 69.6193 31.6402C69.5802 31.009 69.6698 30.3765 69.883 29.7798C70.0961 29.1831 70.4286 28.6344 70.8607 28.1657C71.325 27.7372 71.8736 27.4064 72.4728 27.1937C73.072 26.981 73.7092 26.891 74.3451 26.9291C75.2033 26.9086 76.0524 27.1056 76.8106 27.5011C77.5181 27.8843 78.0889 28.4716 78.4458 29.1837C78.8391 29.956 79.0359 30.8104 79.0194 31.6738ZM72.316 31.6738C72.2671 32.3885 72.4307 33.1017 72.7869 33.7265C72.9609 33.9629 73.1944 34.1508 73.4645 34.2717C73.7347 34.3927 74.0322 34.4425 74.3279 34.4164C74.6208 34.4395 74.9149 34.3882 75.1817 34.2674C75.4486 34.1466 75.6794 33.9604 75.8518 33.7265C76.2018 33.0996 76.3622 32.3874 76.3141 31.6738C76.364 30.9672 76.2002 30.2618 75.8433 29.6464C75.6521 29.4333 75.4169 29.2627 75.1534 29.1458C74.8899 29.0289 74.6042 28.9685 74.3151 28.9685C74.026 28.9685 73.7403 29.0289 73.4768 29.1458C73.2133 29.2627 72.9781 29.4333 72.7869 29.6464C72.4309 30.2622 72.2671 30.9673 72.316 31.6738Z" fill="#007C4B"/>
<path d="M85.1321 36.4186C82.1186 36.4186 80.6118 34.8594 80.6118 31.7411C80.5669 31.0986 80.6528 30.4537 80.8645 29.8441C81.0761 29.2345 81.4093 28.6725 81.8446 28.191C82.3159 27.7602 82.8721 27.429 83.4787 27.2177C84.0854 27.0065 84.7297 26.9197 85.3718 26.9627C86.4114 26.9428 87.442 27.1556 88.3854 27.5852L87.6063 29.5033C87.1868 29.3519 86.8015 29.2173 86.442 29.1164C86.0944 29.0162 85.734 28.9652 85.3718 28.9649C83.9935 28.9649 83.3086 29.8903 83.3086 31.7243C83.3086 33.5583 83.9935 34.3995 85.3718 34.3995C85.8493 34.4046 86.325 34.3422 86.7844 34.2145C87.2437 34.0703 87.6813 33.8666 88.0857 33.6087V35.7372C87.6846 35.9849 87.2451 36.1668 86.7844 36.2756C86.2402 36.3795 85.6865 36.4274 85.1321 36.4186Z" fill="#007C4B"/>
<path d="M99.3093 36.2588H96.6639V30.9251C96.6639 29.6127 96.1417 28.9481 95.1058 28.9481C94.7979 28.9236 94.4886 28.9763 94.2071 29.1014C93.9255 29.2265 93.681 29.4198 93.4963 29.6632C93.1153 30.3678 92.946 31.1643 93.0083 31.9599V36.2588H90.3629V23.5556H93.0083V26.1467C93.0083 26.3486 93.0083 26.8197 92.9484 27.5684L92.8885 28.3003H93.0254C93.3313 27.8533 93.7523 27.4939 94.2456 27.2589C94.7389 27.0239 95.2869 26.9217 95.8335 26.9627C96.2971 26.927 96.7633 26.9831 97.2045 27.1276C97.6456 27.2721 98.0528 27.5021 98.4018 27.804C98.7062 28.1404 98.9388 28.5333 99.0858 28.9596C99.2329 29.3859 99.2914 29.8368 99.258 30.2857L99.3093 36.2588Z" fill="#007C4B"/>
<path d="M108.144 36.2587L107.639 35.0137H107.571C107.203 35.4792 106.731 35.8561 106.193 36.1157C105.606 36.3377 104.98 36.4407 104.352 36.4186C103.547 36.4613 102.757 36.1926 102.152 35.6699C101.876 35.3874 101.662 35.0515 101.525 34.6837C101.388 34.3158 101.33 33.924 101.355 33.533C101.327 33.1137 101.411 32.6944 101.601 32.3176C101.79 31.9408 102.078 31.62 102.434 31.3878C103.431 30.855 104.553 30.5909 105.687 30.6223L107.4 30.5802V30.1764C107.4 29.251 106.903 28.7883 105.893 28.7883C104.946 28.8271 104.017 29.0532 103.162 29.4529L102.306 27.7703C103.457 27.208 104.727 26.9198 106.013 26.9291C107.074 26.8621 108.128 27.1432 109.009 27.7283C109.365 28.024 109.645 28.3986 109.825 28.8213C110.005 29.244 110.081 29.7026 110.045 30.1595V36.2419L108.144 36.2587ZM107.365 32.0524H106.347C105.751 32.0355 105.16 32.1718 104.634 32.4478C104.451 32.5652 104.303 32.7284 104.205 32.9206C104.108 33.1128 104.064 33.3271 104.078 33.5415C104.078 34.2397 104.506 34.593 105.354 34.593C105.891 34.6185 106.418 34.4409 106.826 34.0967C107.011 33.9285 107.157 33.7221 107.251 33.4923C107.346 33.2625 107.388 33.015 107.374 32.7675L107.365 32.0524Z" fill="#007C4B"/>
<path d="M118.144 26.9628C118.431 26.9597 118.718 26.9851 119 27.0385L118.803 29.3688C118.548 29.3115 118.286 29.2833 118.024 29.2847C117.31 29.2438 116.606 29.4624 116.046 29.8988C115.812 30.1123 115.628 30.3734 115.507 30.664C115.385 30.9546 115.33 31.2676 115.344 31.5813V36.2251H112.699V27.131H114.719L115.105 28.6705H115.242C115.534 28.1636 115.952 27.7381 116.457 27.4339C116.961 27.1183 117.547 26.9546 118.144 26.9628Z" fill="#007C4B"/>
<path d="M53.1219 40.5745H57.0771C58.4228 40.4832 59.7698 40.7323 60.9896 41.298C61.386 41.5362 61.7092 41.8756 61.9248 42.28C62.1404 42.6845 62.2403 43.1388 62.2138 43.5946C62.2415 44.2238 62.0515 44.8436 61.6745 45.3529C61.5093 45.5798 61.2988 45.7713 61.056 45.9159C60.8132 46.0605 60.5431 46.1552 60.2619 46.1942V46.2783C60.9301 46.3834 61.5377 46.7208 61.9741 47.2289C62.4185 47.9216 62.5906 48.7497 62.4582 49.5581C62.3258 50.3664 61.898 51.0997 61.255 51.6204C60.2452 52.2834 59.0431 52.6053 57.8305 52.5373H53.0791L53.1219 40.5745ZM55.8101 45.3024H57.3768C57.9249 45.3459 58.4743 45.235 58.9606 44.9827C59.1277 44.864 59.2605 44.7047 59.3461 44.5203C59.4316 44.336 59.4669 44.1329 59.4486 43.9311C59.4638 43.7346 59.422 43.5378 59.3281 43.3635C59.2342 43.1893 59.0919 43.0449 58.9178 42.9469C58.381 42.7099 57.7924 42.6087 57.2056 42.6524H55.7845L55.8101 45.3024ZM55.8101 47.3131V50.4257H57.5823C58.1593 50.4725 58.7362 50.3337 59.226 50.0303C59.4072 49.8816 59.5499 49.6927 59.6421 49.4791C59.7344 49.2656 59.7737 49.0335 59.7568 48.8021C59.7568 47.8094 59.0034 47.3131 57.4967 47.3131H55.8101Z" fill="#007C4B"/>
<path d="M70.2785 43.2329C70.5653 43.2316 70.8517 43.2541 71.1346 43.3002L70.9377 45.6389C70.6821 45.5817 70.4207 45.5534 70.1586 45.5548C69.445 45.514 68.7411 45.7325 68.181 46.1689C67.946 46.3824 67.7608 46.6433 67.6382 46.9337C67.5155 47.2242 67.4583 47.5372 67.4704 47.8514V52.4869H64.8593V43.3843H66.8626L67.2564 44.9238H67.3848C67.68 44.4166 68.1012 43.9911 68.609 43.6872C69.1083 43.3785 69.6888 43.2205 70.2785 43.2329Z" fill="#007C4B"/>
<path d="M79.0965 52.4869L78.5829 51.2418H78.5144C78.1486 51.7096 77.6766 52.087 77.1361 52.3438C76.5496 52.5658 75.9235 52.6688 75.2954 52.6467C74.8965 52.6706 74.4968 52.6167 74.1192 52.4882C73.7416 52.3597 73.3936 52.1591 73.0952 51.898C72.8153 51.6177 72.5989 51.2824 72.4602 50.9141C72.3215 50.5459 72.2637 50.1529 72.2904 49.7611C72.2597 49.3416 72.3436 48.9216 72.5332 48.5445C72.7228 48.1674 73.0114 47.8468 73.3691 47.6159C74.3689 47.0832 75.4941 46.8191 76.6309 46.8503L78.3432 46.7999V46.3961C78.3432 45.4707 77.838 45.008 76.8278 45.008C75.8813 45.0468 74.9524 45.2729 74.0968 45.6726L73.2407 43.99C74.394 43.4246 75.6674 43.1362 76.9563 43.1488C78.0229 43.0902 79.0785 43.3866 79.9527 43.99C80.3104 44.2849 80.5917 44.6591 80.7733 45.0819C80.955 45.5046 81.0316 45.9637 80.9971 46.4213V52.4869H79.0965ZM78.3175 48.2805H77.2902C76.6949 48.261 76.1047 48.3944 75.5779 48.6675C75.3932 48.7859 75.2436 48.9502 75.1443 49.1437C75.0451 49.3373 74.9997 49.5532 75.0129 49.7695C75.0129 50.4678 75.4409 50.8211 76.297 50.8211C76.8344 50.8466 77.3613 50.669 77.7696 50.3248C77.9542 50.1556 78.0994 49.9493 78.1954 49.7199C78.2915 49.4905 78.336 49.2434 78.326 48.9956L78.3175 48.2805Z" fill="#007C4B"/>
<path d="M90.4401 49.8116C90.4637 50.2246 90.3812 50.6368 90.2002 51.0102C90.0192 51.3836 89.7454 51.7063 89.4042 51.9484C88.4687 52.4988 87.3841 52.7542 86.2965 52.6803C85.6943 52.6896 85.0925 52.6446 84.4986 52.5457C84.017 52.4661 83.5461 52.3334 83.0946 52.1503V50.0976C83.649 50.326 84.2217 50.5089 84.8068 50.6445C85.3387 50.7786 85.8845 50.852 86.4335 50.8632C87.3923 50.8632 87.8717 50.6024 87.8717 50.0808C87.8748 49.9926 87.8597 49.9046 87.8273 49.8222C87.795 49.7398 87.746 49.6647 87.6834 49.6013C87.484 49.4324 87.2623 49.2909 87.0242 49.1807C86.7074 49.0292 86.2879 48.8441 85.7742 48.6422C85.1931 48.4237 84.6388 48.1415 84.122 47.801C83.802 47.5857 83.5405 47.2969 83.36 46.9597C83.1917 46.5837 83.1098 46.1758 83.1203 45.7651C83.1062 45.3926 83.1912 45.0228 83.3668 44.6924C83.5425 44.3619 83.8028 44.0821 84.122 43.8806C84.9817 43.3879 85.9708 43.1566 86.9643 43.2161C88.1443 43.2144 89.3113 43.4581 90.3887 43.9311L89.5925 45.7314C89.1451 45.5474 88.6878 45.3873 88.2227 45.2519C87.8041 45.1243 87.3684 45.0591 86.93 45.0584C86.151 45.0584 85.7657 45.2603 85.7657 45.6557C85.7695 45.7769 85.8065 45.8947 85.8728 45.9969C85.9391 46.0991 86.0322 46.1817 86.1424 46.2362C86.6716 46.5247 87.2242 46.7695 87.7947 46.9681C88.3814 47.1803 88.9393 47.4628 89.4555 47.8094C89.7844 48.022 90.0549 48.3109 90.2432 48.6507C90.3971 49.0181 90.4644 49.415 90.4401 49.8116Z" fill="#007C4B"/>
<path d="M92.3918 41.0203C92.3918 40.1791 92.8713 39.8089 93.8387 39.8089C94.8061 39.8089 95.277 40.2127 95.277 41.0203C95.2865 41.1882 95.2594 41.3562 95.1974 41.5129C95.1353 41.6696 95.0399 41.8115 94.9174 41.9289C94.6102 42.1625 94.2261 42.2763 93.8387 42.2486C92.8713 42.2486 92.3918 41.8364 92.3918 41.0203ZM95.1571 52.4868H92.5031V43.3843H95.1571V52.4868Z" fill="#007C4B"/>
<path d="M100.576 52.4868H97.931V39.8089H100.576V52.4868Z" fill="#007C4B"/>
</svg>
